<svg width="98" height="56" viewBox="0 0 98 56" fill="none" xmlns="http://www.w3.org/2000/svg">
<path d="M97.3777 55.2469C96.7321 53.2639 96.3697 51.2443 96.4247 49.1443C96.4747 47.2553 96.4527 45.3637 96.427 43.4736C96.3928 40.9597 95.0811 39.3246 92.6465 38.6997C92.5512 38.6754 92.4208 38.7084 92.3891 38.5861C92.3451 38.4201 92.5014 38.4018 92.6014 38.3468C94.7553 37.1692 95.6924 35.1655 96.0731 32.9032C96.5148 30.2882 96.3415 27.6266 96.2085 24.9956C96.0694 22.2353 94.4061 20.4854 91.7398 19.8544C90.1461 19.4785 88.5389 19.4688 86.9562 19.7568C82.762 20.5194 78.5654 21.2601 74.3407 21.8314C73.8208 21.901 73.705 22.1181 73.7074 22.6184C73.727 28.0463 73.7197 33.4729 73.7197 38.9008H73.638C73.638 44.3484 73.6466 49.7957 73.627 55.2432C73.6246 55.8082 73.7453 56.0059 74.3567 55.9999C77.2633 55.9658 80.1713 55.9705 83.0782 55.9975C83.6005 56.0024 83.7139 55.8375 83.7128 55.3471C83.6958 51.6472 83.7068 47.9485 83.7092 44.2486C83.7104 42.6316 83.7105 42.6316 85.3455 42.7146C86.1728 42.7573 86.7208 43.2149 86.8489 44.0339C86.9221 44.4928 86.9489 44.9625 86.9512 45.4286C86.9599 47.1956 86.9243 48.9649 86.9562 50.7321C86.9832 52.2391 87.1259 53.7341 87.8652 55.0997C88.1935 55.7037 88.6536 56.005 89.3809 55.9966C91.8812 55.966 94.3828 55.9856 96.8834 55.9843C97.5693 55.9839 97.6021 55.9376 97.3777 55.2469ZM86.6719 33.5889C86.6548 34.4479 86.1765 34.8982 85.3089 35.0228C83.7225 35.2511 83.7225 35.2511 83.7236 33.6719V31.2349C83.7236 30.1183 83.7346 29.0006 83.7176 27.884C83.7115 27.5337 83.7945 27.3653 84.1838 27.3666C84.6085 27.369 85.0332 27.2739 85.4565 27.2714C86.2035 27.269 86.6635 27.6704 86.6755 28.4123C86.7036 30.1379 86.7049 31.8646 86.6719 33.5889Z" fill="#5A4840"/>
<path d="M22.9515 43.9591C22.7818 41.8554 21.7495 40.1968 19.8398 39.1755C19.3285 38.9022 18.7891 38.6825 18.2498 38.4322C18.4207 38.2468 18.6318 38.2479 18.8221 38.1992C20.843 37.6866 22.1657 36.4626 22.6978 34.4212C23.1944 32.5189 23.0261 30.5896 22.9321 28.6663C22.9015 28.039 22.7491 27.4264 22.555 26.826C21.5984 23.8534 19.4188 22.2304 16.5305 21.4445C14.1899 20.8088 11.7542 20.7697 9.36724 20.4194C6.61664 20.0168 3.85763 19.6738 1.10832 19.2625C0.603034 19.1868 0.499348 19.2759 0.499348 19.7738C0.512713 31.6426 0.512712 43.5099 0.498054 55.3773C0.496761 55.9081 0.671368 55.9973 1.15466 55.9947C5.48428 55.9764 9.81389 55.9824 14.1424 55.985C15.2028 55.9863 16.2474 55.874 17.2834 55.642C20.361 54.9527 22.3526 52.905 22.8676 49.7944C23.1869 47.8591 23.1075 45.8968 22.9515 43.9591ZM11.0327 28.1841C11.2877 28.2414 11.5563 28.2365 11.8197 28.2537C12.8753 28.3257 13.4537 28.8187 13.5013 29.878C13.5623 31.2533 13.555 32.6359 13.5037 34.0123C13.4684 34.9483 12.9204 35.3729 11.9747 35.351C10.4871 35.3143 10.4847 35.3143 10.475 33.8403C10.469 33.1106 10.4737 32.3807 10.4737 31.6499C10.4737 30.6566 10.4921 29.662 10.4651 28.6687C10.4543 28.222 10.6007 28.0854 11.0327 28.1841ZM13.5613 46.7351C13.5442 48.0324 13.0622 48.5071 11.7919 48.5021C10.4959 48.4972 10.4946 48.4972 10.491 47.1891C10.4886 46.4178 10.491 45.6455 10.491 44.8742H10.4787C10.4787 43.9005 10.4957 42.9253 10.4714 41.9515C10.4617 41.5183 10.5604 41.3512 11.0461 41.3743C13.2291 41.4756 13.566 41.8075 13.566 43.9929C13.5649 44.9072 13.5733 45.8211 13.5613 46.7351Z" fill="#5A4840"/>
<path d="M71.9876 55.458C71.585 53.5116 71.203 51.5603 70.8247 49.609C70.046 45.6064 69.286 41.6002 68.4976 37.5989C67.541 32.742 66.5537 27.8913 65.6117 23.0321C65.525 22.5805 65.3797 22.472 64.9563 22.4927C61.4237 22.6697 57.8908 22.8271 54.3532 22.8467C54.0335 22.848 53.9115 22.9493 53.8479 23.28C53.5575 24.7933 53.2255 26.299 52.9169 27.8086C52.2518 31.0461 51.5916 34.2848 50.9289 37.5234C50.2576 40.8011 49.5879 44.0789 48.9166 47.3579C48.3663 50.0402 47.8196 52.7235 47.2557 55.4034C47.163 55.8451 47.2324 56.0014 47.734 55.9964C50.398 55.9721 53.0619 55.9768 55.7259 55.9928C56.1346 55.9951 56.2799 55.8647 56.3409 55.4545C56.5276 54.2109 56.7765 52.9772 56.9802 51.7349C57.0303 51.4273 57.162 51.342 57.4599 51.3433C58.6595 51.3482 59.8589 51.3409 61.0585 51.3152C61.4088 51.3079 61.5528 51.4105 61.5968 51.7802C61.7371 52.9688 61.9531 54.1501 62.0727 55.3398C62.1264 55.8744 62.3254 56.0085 62.8354 55.9964C64.2571 55.9635 65.6811 55.9841 67.1053 55.9841C68.5893 55.9841 70.0743 55.9719 71.5582 55.9928C71.9913 55.9986 72.0706 55.863 71.9876 55.458ZM60.0249 45.1904C59.5002 45.1464 58.9682 45.1734 58.4409 45.1964C58.1286 45.2098 58.0479 45.0854 58.0932 44.7987C58.4056 42.8571 58.7119 40.9145 59.0195 38.9718C59.1928 37.8772 59.3648 36.7814 59.5468 35.6185C59.8421 36.4568 59.8261 37.2781 59.9274 38.0761C60.1984 40.2091 60.4131 42.3497 60.6841 44.484C60.7572 45.0574 60.5912 45.2378 60.0249 45.1904Z" fill="#5A4840"/>
<path d="M25.0928 39.0214C25.0928 33.534 25.0936 28.0466 25.0906 22.559C25.0904 22.2363 25.0518 21.9724 25.5496 22.0149C30.1469 22.407 34.7552 22.6081 39.3659 22.7547C41.1737 22.812 42.9827 22.85 44.7913 22.8511C45.2716 22.8513 45.353 23.0065 45.3492 23.4404C45.3302 25.5948 45.3285 27.7495 45.3576 29.9037C45.3642 30.4059 45.231 30.5573 44.7197 30.5426C41.774 30.4581 38.827 30.4176 35.8813 30.3342C35.3713 30.3197 35.1726 30.4077 35.1952 30.9828C35.2465 32.2811 35.2284 33.5834 35.201 34.883C35.1922 35.3059 35.3114 35.4368 35.7389 35.4417C37.5065 35.4618 39.2735 35.5355 41.0409 35.5495C41.5246 35.5534 41.7044 35.6554 41.6953 36.1833C41.6624 38.1128 41.6641 40.0436 41.6951 41.9734C41.7035 42.4944 41.5431 42.6037 41.0452 42.5897C39.2985 42.5405 37.5496 42.5692 35.8033 42.5136C35.2825 42.497 35.2004 42.675 35.209 43.1296C35.2351 44.5112 35.2383 45.8936 35.2122 47.2752C35.2038 47.7179 35.3079 47.8678 35.7798 47.8686C38.7673 47.8747 41.7548 47.9236 44.7423 47.932C45.1978 47.9333 45.3662 48.0176 45.3593 48.5222C45.328 50.8389 45.3345 53.1562 45.3509 55.4733C45.3537 55.863 45.2644 55.9939 44.8518 55.9932C38.4481 55.9805 32.0441 55.9801 25.6403 55.9935C25.1883 55.9943 25.1163 55.8253 25.1171 55.4246C25.1288 49.957 25.1251 44.4892 25.1251 39.0216C25.1143 39.0214 25.1035 39.0214 25.0928 39.0214Z" fill="#5A4840"/>
<path d="M42.5506 9.16072C42.5508 6.31592 42.5598 3.47133 42.5413 0.626524C42.5383 0.174485 42.615 -0.00809868 43.1281 0.00440406C44.6105 0.0404033 46.0944 0.0259611 47.5775 0.000308941C48.0274 -0.00745138 48.1615 0.129432 48.1557 0.587291C48.1307 2.61812 48.1636 4.6496 48.1324 6.68044C48.1246 7.18486 48.2904 7.31743 48.7549 7.28359C49.1994 7.25104 49.65 7.25772 50.0951 7.28617C50.5452 7.31506 50.6914 7.14929 50.6862 6.69208C50.6642 4.68065 50.6929 2.66878 50.6655 0.657564C50.6588 0.164568 50.7692 -0.0076665 51.2945 0.00548294C52.7769 0.0423445 54.2611 0.0311346 55.7442 0.00936261C56.1527 0.0033268 56.3113 0.0942957 56.3103 0.541161C56.2965 6.31182 56.2967 12.0825 56.3103 17.8531C56.3113 18.2938 56.1598 18.4087 55.7463 18.4039C54.2426 18.3865 52.7381 18.3787 51.2348 18.4087C50.7463 18.4184 50.6657 18.2183 50.6698 17.7962C50.6868 16.0086 50.661 14.2205 50.6879 12.433C50.6948 11.9788 50.5743 11.8044 50.1145 11.852C49.4749 11.9184 48.617 11.5789 48.2505 11.9911C47.9336 12.3476 48.149 13.1855 48.1462 13.8109C48.1401 15.1515 48.1281 16.4923 48.1552 17.8325C48.1645 18.2933 48.016 18.4171 47.5626 18.4082C46.0796 18.3798 44.5952 18.3774 43.1123 18.4087C42.6372 18.4188 42.5383 18.2573 42.5411 17.8167C42.559 14.9314 42.5503 12.0461 42.5506 9.16072Z" fill="#5A4840"/>
<path d="M58.0573 9.13035C58.0573 6.28576 58.065 3.44096 58.0489 0.596582C58.0465 0.165884 58.1317 0.00291714 58.6121 0.0061506C61.9859 0.0287849 65.36 0.0259826 68.734 0.00895305C69.1681 0.0067974 69.2882 0.139369 69.2776 0.561229C69.2513 1.61728 69.2563 2.67462 69.2787 3.73067C69.2876 4.15124 69.1481 4.2892 68.7206 4.28274C67.2177 4.2601 65.7139 4.29028 64.211 4.26528C63.7833 4.25816 63.6307 4.37801 63.6538 4.81087C63.685 5.3985 63.6857 5.99044 63.6533 6.57785C63.6305 6.99411 63.7975 7.0993 64.1819 7.08982C65.0351 7.06891 65.8894 7.09758 66.7426 7.07753C67.1319 7.06847 67.2854 7.19005 67.2748 7.59898C67.2505 8.5535 67.2421 9.50996 67.2778 10.4636C67.2953 10.9284 67.1 11.0017 66.7038 10.9911C65.8508 10.9683 64.9963 10.9991 64.1433 10.9764C63.7846 10.967 63.6333 11.0487 63.6527 11.4438C63.6852 12.1129 63.6827 12.7855 63.6536 13.4548C63.6372 13.8325 63.7618 13.9448 64.1343 13.9405C65.6566 13.9224 67.1798 13.9487 68.7016 13.9202C69.161 13.9116 69.2888 14.0478 69.2759 14.502C69.2436 15.6391 69.2533 16.7779 69.2722 17.9155C69.2785 18.2893 69.1511 18.4026 68.7814 18.4016C65.3669 18.391 61.9521 18.3871 58.5376 18.4067C58.0234 18.4098 58.0558 18.1287 58.0564 17.7859C58.0605 14.9006 58.0588 12.0155 58.0588 9.13013C58.0588 9.13013 58.0579 9.13035 58.0573 9.13035Z" fill="#5A4840"/>
<path d="M32.2976 11.3987C32.2976 9.28511 32.2858 7.17128 32.3073 5.05767C32.3118 4.61404 32.2114 4.44461 31.7356 4.46724C30.9042 4.50669 30.0693 4.46444 29.2364 4.48406C28.8745 4.49268 28.7285 4.38425 28.7346 4.0027C28.7529 2.82421 28.7514 1.64507 28.7352 0.466579C28.7305 0.125556 28.835 0.0108756 29.1847 0.0117378C33.1485 0.0220849 37.1125 0.0229463 41.0765 0.0104435C41.4397 0.0093657 41.5184 0.141939 41.5143 0.469166C41.4996 1.64744 41.4953 2.82615 41.5141 4.00442C41.5201 4.38791 41.3746 4.49289 41.0127 4.48406C40.18 4.46358 39.3449 4.50626 38.5134 4.46595C38.0112 4.44181 37.8993 4.62978 37.901 5.09712C37.9178 9.22173 37.9116 13.3466 37.9157 17.4712C37.9165 18.3951 37.9228 18.3955 37.0073 18.3957C35.6656 18.3964 34.3235 18.375 32.9827 18.4074C32.4671 18.4197 32.2765 18.3067 32.2864 17.7393C32.3233 15.6264 32.3011 13.5123 32.3011 11.3985C32.2998 11.3987 32.2987 11.3987 32.2976 11.3987Z" fill="#5A4840"/>
</svg>
